<svg width="15" height="15" viewBox="0 0 12 10" fill="none" xmlns="http://www.w3.org/2000/svg">
<path fill-rule="evenodd" clip-rule="evenodd" d="M11.3053 0C11.4186 0 11.5168 0.0412053 11.5997 0.123684C11.6825 0.206118 11.7241 0.303715 11.7241 0.416636V3.75C11.7241 3.86285 11.6827 3.9605 11.5998 4.04295C11.5169 4.12543 11.4187 4.16668 11.3053 4.16668C11.1919 4.16668 11.0937 4.12543 11.0109 4.04295L9.8594 2.89714L5.59375 7.1419C5.55016 7.18532 5.49995 7.20693 5.44326 7.20693C5.38657 7.20693 5.33638 7.18529 5.29278 7.1419L4.54693 6.39979C4.50332 6.3564 4.48148 6.30648 4.48148 6.24995C4.48148 6.19363 4.50325 6.14369 4.54693 6.1003L8.81256 1.85547L7.66113 0.709657C7.57824 0.627178 7.53674 0.529489 7.53674 0.416636C7.53674 0.303784 7.57824 0.206118 7.66113 0.123684C7.74394 0.0412053 7.84214 0 7.95552 0H11.3053ZM8.58372 5.83328H9.00248C9.06348 5.83328 9.11366 5.85278 9.15292 5.89195C9.19229 5.93097 9.2119 5.98091 9.2119 6.04177V8.12502C9.2119 8.64147 9.02762 9.08316 8.65902 9.44977C8.29045 9.81653 7.84658 10 7.32761 10H1.88422C1.36523 10 0.921406 9.81653 0.552788 9.44977C0.184286 9.08316 0 8.64144 0 8.12502V2.70831C0 2.19187 0.184286 1.75022 0.552765 1.38349C0.921383 1.01675 1.36521 0.833369 1.8842 0.833369H6.49006C6.55122 0.833369 6.6014 0.852866 6.64061 0.891927C6.67982 0.930921 6.69941 0.980882 6.69941 1.04158V1.45831C6.69941 1.51913 6.67982 1.569 6.64061 1.60806C6.6014 1.64708 6.55122 1.66666 6.49006 1.66666H1.8842C1.59633 1.66666 1.34988 1.76862 1.14485 1.97264C0.939852 2.17663 0.837398 2.42179 0.837398 2.70824V8.12493C0.837398 8.41143 0.939875 8.65661 1.14485 8.8606C1.34988 9.06458 1.59633 9.16648 1.8842 9.16648H7.32761C7.6155 9.16648 7.86198 9.06458 8.06696 8.8606C8.27193 8.65658 8.37437 8.4114 8.37437 8.12493V6.04161C8.37437 5.98082 8.39396 5.9309 8.43333 5.89195C8.47237 5.85278 8.52256 5.83328 8.58372 5.83328Z" fill="#757575"/>
</svg>
