<svg width="184" height="51" viewBox="0 0 184 51" fill="none" xmlns="http://www.w3.org/2000/svg">
<path fill-rule="evenodd" clip-rule="evenodd" d="M78.8418 5.17953C78.8418 2.31716 81.0908 0 83.9532 0C86.8156 0 89.0646 2.31716 89.0646 5.17953C89.0646 8.0419 86.8156 10.3591 83.9532 10.3591C81.0908 10.3591 78.8418 8.0419 78.8418 5.17953ZM80.3411 15.266H87.4289V50.4323L80.3411 50.4323V15.266ZM49.3039 20.3774C52.03 16.9016 56.051 14.8571 60.3445 14.8571C66.9553 14.8571 72.3392 20.4455 72.3392 29.7142V50.4323H65.2515V29.9868C65.2515 25.5569 61.7076 21.8767 57.2777 21.8767C52.8478 21.8767 49.3039 25.5569 49.3039 29.9868V50.4323H42.148L42.148 15.266H49.3039V20.3774ZM97.1767 15.266V21.8086L117.213 21.8086V28.283H109.717C99.6983 28.283 94.2462 33.1218 94.2462 40.2095C94.2462 46.5477 99.4257 50.8412 105.9 50.8412C109.989 50.8412 114.283 49.2737 117.213 45.4572V50.4323H124.233V15.266L97.1767 15.266ZM107.945 44.912C104.264 44.912 101.47 42.7993 101.47 39.8007C101.47 36.7338 103.515 33.8714 110.671 33.8714H117.213C117.213 41.5726 112.647 44.912 107.945 44.912ZM161.783 39.4988C163.146 37.1817 175.004 17.4176 176.163 15.5775L184 15.5775V50.7439H176.912V25.664C176.863 25.664 169.9 37.2463 165.392 44.7443L165.391 44.747L165.381 44.7631L165.364 44.7921C163.604 47.7196 162.223 50.0165 161.783 50.7439H154.695V25.5959C154.627 25.5959 141.405 47.6089 139.565 50.7439H132.409V15.5775L139.565 15.5775L139.497 37.3861L139.565 39.567C140.792 37.4543 153.877 15.5775 153.945 15.5775H161.714C161.783 15.5775 161.783 39.4307 161.783 39.4988ZM21.2634 8.47031C20.3092 8.0614 18.9462 7.65249 17.2424 7.65249C14.7208 7.65249 12.4718 9.01552 12.4718 12.0142V15.2855L26.7144 15.2855H33.8022L33.8022 50.4518L26.7144 50.4518L26.7144 21.4873L12.4718 21.4873L12.4718 50.4518H5.38399L5.38399 21.4873H0L0 15.2855H5.38399V11.8779C5.38399 5.47163 9.81385 0.973616 15.8112 0.973616C18.0602 0.973616 20.1048 1.51883 21.2634 2.06404V8.47031Z" fill="#FCFCFC"/>
</svg>
